<?xml version="1.0" encoding="UTF-8"?>
<svg width="10px" height="16px" viewBox="0 0 10 16" version="1.1" xmlns="http://www.w3.org/2000/svg" xmlns:xlink="http://www.w3.org/1999/xlink">
    <!-- Generator: Sketch 52.3 (67297) - http://www.bohemiancoding.com/sketch -->
    <title>icon_arrow_left</title>
    <desc>Created with Sketch.</desc>
    <g id="icon规范" stroke="none" stroke-width="1" fill="none" fill-rule="evenodd">
        <g id="iPad-Copy-2" transform="translate(-265.000000, -260.000000)" fill="#666666" fill-rule="nonzero">
            <path d="M265.688195,267.299292 L272.143695,260.72642 C272.530685,260.332393 273.163824,260.326689 273.557851,260.71368 C273.562136,260.717888 273.566383,260.722135 273.570591,260.72642 L274.311805,261.48111 C274.693874,261.870126 274.693874,262.49351 274.311805,262.882526 L269.285714,268 L274.311805,273.117474 C274.693874,273.50649 274.693874,274.129874 274.311805,274.51889 L273.570591,275.27358 C273.183601,275.667607 272.550461,275.673311 272.156435,275.28632 C272.15215,275.282112 272.147903,275.277865 272.143695,275.27358 L265.688195,268.700708 C265.306126,268.311692 265.306126,267.688308 265.688195,267.299292 Z" id="icon_arrow_left"></path>
        </g>
    </g>
</svg>