<?xml version="1.0" encoding="UTF-8"?>
<svg width="42px" height="42px" viewBox="0 0 42 42" version="1.1" xmlns="http://www.w3.org/2000/svg" xmlns:xlink="http://www.w3.org/1999/xlink">
    <!-- Generator: Sketch 52.3 (67297) - http://www.bohemiancoding.com/sketch -->
    <title>Group 4</title>
    <desc>Created with Sketch.</desc>
    <g id="Page-1" stroke="none" stroke-width="1" fill="none" fill-rule="evenodd">
        <g id="弹窗" transform="translate(-167.000000, -429.000000)" fill="#FFFFFF" fill-rule="nonzero">
            <g id="Group-4" transform="translate(167.000000, 429.000000)">
                <path d="M21,42 C9.40202025,42 0,32.5979797 0,21 C0,9.40202025 9.40202025,0 21,0 C32.5979797,0 42,9.40202025 42,21 C42,32.5979797 32.5979797,42 21,42 Z M21,40 C31.4934102,40 40,31.4934102 40,21 C40,10.5065898 31.4934102,2 21,2 C10.5065898,2 2,10.5065898 2,21 C2,31.4934102 10.5065898,40 21,40 Z M21.7071068,21.7071068 L28.0710678,28.0710678 C28.4615921,28.4615921 28.4615921,29.0947571 28.0710678,29.4852814 C27.6805435,29.8758057 27.0473785,29.8758057 26.6568542,29.4852814 L20.2928932,23.1213203 L14.636039,28.7781746 C14.2455147,29.1686989 13.6123497,29.1686989 13.2218254,28.7781746 C12.8313011,28.3876503 12.8313011,27.7544853 13.2218254,27.363961 L18.8786797,21.7071068 L12.5147186,15.3431458 C12.1241943,14.9526215 12.1241943,14.3194565 12.5147186,13.9289322 C12.9052429,13.5384079 13.5384079,13.5384079 13.9289322,13.9289322 L20.2928932,20.2928932 L27.363961,13.2218254 C27.7544853,12.8313011 28.3876503,12.8313011 28.7781746,13.2218254 C29.1686989,13.6123497 29.1686989,14.2455147 28.7781746,14.636039 L21.7071068,21.7071068 Z" id="Combined-Shape"></path>
            </g>
        </g>
    </g>
</svg>