<?xml version="1.0" encoding="UTF-8"?>
<svg width="16px" height="16px" viewBox="0 0 16 16" version="1.1" xmlns="http://www.w3.org/2000/svg" xmlns:xlink="http://www.w3.org/1999/xlink">
    <!-- Generator: Sketch 52.3 (67297) - http://www.bohemiancoding.com/sketch -->
    <title>icon_comment</title>
    <desc>Created with Sketch.</desc>
    <g id="icon规范" stroke="none" stroke-width="1" fill="none" fill-rule="evenodd">
        <g id="iPad-Copy-2" transform="translate(-444.000000, -320.000000)" fill="#666666" fill-rule="nonzero">
            <path d="M458.929875,331.999771 L459.640421,334.655653 C459.75461,335.082469 459.501175,335.521041 459.074358,335.635231 C458.938816,335.671493 458.796121,335.67147 458.660591,335.635163 L456.008633,334.924742 C454.82999,335.608514 453.460713,336 452,336 C447.581722,336 444,332.418278 444,328 C444,323.581722 447.581722,320 452,320 C456.418278,320 460,323.581722 460,328 C460,329.457054 459.610473,330.823129 458.929875,331.999771 Z M448.812345,325 C448.536202,325 448.312345,325.223858 448.312345,325.5 L448.312345,326.5 C448.312345,326.776142 448.536202,327 448.812345,327 L454.812345,327 C455.088487,327 455.312345,326.776142 455.312345,326.5 L455.312345,325.5 C455.312345,325.223858 455.088487,325 454.812345,325 L448.812345,325 Z M448.812345,329 C448.536202,329 448.312345,329.223858 448.312345,329.5 L448.312345,330.5 C448.312345,330.776142 448.536202,331 448.812345,331 L452.812345,331 C453.088487,331 453.312345,330.776142 453.312345,330.5 L453.312345,329.5 C453.312345,329.223858 453.088487,329 452.812345,329 L448.812345,329 Z" id="icon_comment"></path>
        </g>
    </g>
</svg>