<?xml version="1.0" encoding="UTF-8"?>
<svg width="16px" height="15px" viewBox="0 0 16 15" version="1.1" xmlns="http://www.w3.org/2000/svg" xmlns:xlink="http://www.w3.org/1999/xlink">
    <!-- Generator: Sketch 52.3 (67297) - http://www.bohemiancoding.com/sketch -->
    <title>icon_following</title>
    <desc>Created with Sketch.</desc>
    <g id="icon规范" stroke="none" stroke-width="1" fill="none" fill-rule="evenodd">
        <g id="iPad-Copy-2" transform="translate(-984.000000, -261.000000)" fill="#666666">
            <path d="M999.280647,268.433041 L999.152066,268.292979 C999.108066,268.2464 999.108066,268.2464 999.061487,268.202401 C998.451223,267.642161 997.502342,267.682714 996.942102,268.292979 L995.342435,270.035483 L995.038243,269.719957 C995.006156,269.687344 995.006156,269.687344 994.972769,269.656063 C994.362504,269.095823 993.413623,269.136377 992.853383,269.746641 L992.183674,270.476151 C991.652167,271.055117 991.657671,271.946173 992.196289,272.51853 L993.781371,274.202901 L992.710423,275.283421 C992.70834,275.285523 992.706247,275.287615 992.704146,275.289698 C992.311896,275.67849 991.678737,275.675686 991.289946,275.283436 L985.738591,269.682694 L985.297009,269.203433 C983.567664,267.326722 983.567664,264.28408 985.297009,262.407548 C987.025826,260.530817 989.829282,260.530817 991.558373,262.407548 L992.000192,262.886948 L992.441755,262.407548 C994.170572,260.530817 996.974283,260.530817 998.703374,262.407548 C1000.21165,264.044673 1000.40407,266.569345 999.280647,268.433041 Z M995.360258,271.49477 L997.678756,268.969248 C997.865503,268.765827 998.181797,268.752309 998.385218,268.939055 C998.395708,268.948685 998.405781,268.958758 998.415411,268.969248 L999.08008,269.693267 C999.255644,269.884507 999.255644,270.178296 999.08008,270.369536 L995.724049,274.025234 C995.537302,274.228655 995.221009,274.242173 995.017587,274.055427 C995.008615,274.04719 994.999946,274.038628 994.991599,274.029758 L992.924533,271.833213 C992.744994,271.642427 992.74316,271.345408 992.920329,271.15242 L993.590038,270.42291 C993.776785,270.219489 994.093078,270.205971 994.2965,270.392718 C994.30399,270.399593 994.311268,270.406696 994.318325,270.414016 L995.360258,271.49477 Z" id="icon_following"></path>
        </g>
    </g>
</svg>