<?xml version="1.0" encoding="UTF-8"?>
<svg width="16px" height="16px" viewBox="0 0 16 16" version="1.1" xmlns="http://www.w3.org/2000/svg" xmlns:xlink="http://www.w3.org/1999/xlink">
    <!-- Generator: Sketch 52.3 (67297) - http://www.bohemiancoding.com/sketch -->
    <title>icon_help</title>
    <desc>Created with Sketch.</desc>
    <g id="icon规范" stroke="none" stroke-width="1" fill="none" fill-rule="evenodd">
        <g id="iPad-Copy-2" transform="translate(-684.000000, -260.000000)" fill="#666666" fill-rule="nonzero">
            <path d="M692,276 C687.581722,276 684,272.418278 684,268 C684,263.581722 687.581722,260 692,260 C696.418278,260 700,263.581722 700,268 C700,272.418278 696.418278,276 692,276 Z M693.528168,269.504395 L693.528168,269.414752 C693.545193,269.041606 693.663353,268.681977 693.882647,268.335864 C694.627549,267.407867 695,266.629246 695,266 C695,264.343146 693.656854,263 692,263 C690.350583,263 689.012065,264.331114 689,265.977707 L689,266.5 C689,266.776142 689.223858,267 689.5,267 L690.5,267 C690.776142,267 691,266.776142 691,266.5 L691,266 L691.000057,265.989258 C691.005817,265.441921 691.4513,265 692,265 C692.552285,265 693,265.447715 693,266 C693,266.247956 692.909754,266.474835 692.760864,266.650208 C692.611974,266.82558 692.018788,267.373077 691.73164,268.239245 C691.613222,268.596449 691.545276,268.963472 691.526018,269.339404 C691.526018,269.361613 691.526742,269.383652 691.528168,269.4055 L691.528168,269.504395 C691.528168,269.780537 691.752025,270.004395 692.028168,270.004395 L693.028168,270.004395 C693.30431,270.004395 693.528168,269.780537 693.528168,269.504395 Z M692.5,273 C693.052285,273 693.5,272.552285 693.5,272 C693.5,271.447715 693.052285,271 692.5,271 C691.947715,271 691.5,271.447715 691.5,272 C691.5,272.552285 691.947715,273 692.5,273 Z" id="icon_help"></path>
        </g>
    </g>
</svg>