<?xml version="1.0" encoding="UTF-8"?>
<svg width="19px" height="9px" viewBox="0 0 19 9" version="1.1" xmlns="http://www.w3.org/2000/svg" xmlns:xlink="http://www.w3.org/1999/xlink">
    <!-- Generator: Sketch 52.3 (67297) - http://www.bohemiancoding.com/sketch -->
    <title>icon_close</title>
    <desc>Created with Sketch.</desc>
    <g id="icon规范" stroke="none" stroke-width="1" fill="none" fill-rule="evenodd">
        <g id="iPad-Copy-2" transform="translate(-442.000000, -265.000000)" fill="#666666" fill-rule="nonzero">
            <path d="M447.811032,270.401663 C446.826118,269.972208 446.23258,269.358065 445.411372,268.584239 L443.696276,270.343439 C443.308229,270.741464 442.679081,270.741464 442.291035,270.343439 C441.902988,269.945414 441.902988,269.300088 442.291035,268.902063 L444.078243,267.068897 C443.964185,266.912873 443.853258,266.752953 443.745604,266.589245 C443.438729,266.122587 443.558774,265.489117 444.013733,265.174351 C444.468692,264.859584 445.086281,264.982717 445.393156,265.449375 C446.898686,267.738798 449.134124,269.076931 451.528295,269.076931 C453.919171,269.076931 456.151796,267.742524 457.657404,265.458534 C457.964791,264.99223 458.582515,264.869811 459.037128,265.185103 C459.491741,265.500395 459.611091,266.134003 459.303703,266.600307 C459.190688,266.77175 459.07408,266.939028 458.954043,267.102013 L460.708965,268.902063 C461.097012,269.300088 461.097012,269.945414 460.708965,270.343439 C460.320919,270.741464 459.691771,270.741464 459.303724,270.343439 L457.615666,268.611972 C456.791079,269.382945 455.868792,269.993512 454.880937,270.418598 L456.036196,272.471019 C456.310586,272.958499 456.14775,273.581836 455.672493,273.863282 C455.197235,274.144728 454.589525,273.977706 454.315134,273.490226 L452.913472,271.000046 C452.45919,271.076251 451.996618,271.115345 451.528295,271.115345 C451.044714,271.115345 450.567268,271.073662 450.098752,270.992481 L448.692831,273.490226 C448.418441,273.977706 447.810731,274.144728 447.335473,273.863282 C446.860215,273.581836 446.697379,272.958499 446.97177,272.471019 L447.811032,270.401663 Z" id="icon_close"></path>
        </g>
    </g>
</svg>