<?xml version="1.0" encoding="UTF-8"?>
<svg width="16px" height="16px" viewBox="0 0 16 16" version="1.1" xmlns="http://www.w3.org/2000/svg" xmlns:xlink="http://www.w3.org/1999/xlink">
    <!-- Generator: Sketch 52.3 (67297) - http://www.bohemiancoding.com/sketch -->
    <title>icon_like</title>
    <desc>Created with Sketch.</desc>
    <g id="icon规范" stroke="none" stroke-width="1" fill="none" fill-rule="evenodd">
        <g id="iPad-Copy-2" transform="translate(-84.000000, -320.000000)" fill="#666666" fill-rule="nonzero">
            <path d="M96.5714541,336 L85,336 C84.4477153,336 84,335.552285 84,335 L84,326 C84,325.447715 84.4477153,325 85,325 L88.8997525,325 L90.0193093,320.745516 C90.1349147,320.306198 90.5321126,320 90.9863864,320 L95.0736748,320 C95.6259596,320 96.0736748,320.447715 96.0736748,321 C96.0736748,321.09049 96.0613926,321.18056 96.0371643,321.267746 L95,325 L99.0006738,325 C99.5529585,325 100.000674,325.447715 100.000674,326 C100.000674,326.088004 99.9890568,326.175624 99.9661239,326.260588 L97.5369043,335.260588 C97.4191382,335.696899 97.023379,336 96.5714541,336 Z M86.5008436,327 C86.2247012,327 86.0008436,327.223858 86.0008436,327.5 L86.0008436,333.5 C86.0008436,333.776142 86.2247012,334 86.5008436,334 L87.5,334 C87.7761424,334 88,333.776142 88,333.5 L88,327.5 C88,327.223858 87.7761424,327 87.5,327 L86.5008436,327 Z" id="icon_like"></path>
        </g>
    </g>
</svg>